<?xml version="1.0" encoding="UTF-8" standalone="no"?>
<!-- Created with Inkscape (http://www.inkscape.org/) -->

<svg
   xmlns:dc="http://purl.org/dc/elements/1.1/"
   xmlns:cc="http://creativecommons.org/ns#"
   xmlns:rdf="http://www.w3.org/1999/02/22-rdf-syntax-ns#"
   xmlns:svg="http://www.w3.org/2000/svg"
   xmlns="http://www.w3.org/2000/svg"
   xmlns:sodipodi="http://sodipodi.sourceforge.net/DTD/sodipodi-0.dtd"
   xmlns:inkscape="http://www.inkscape.org/namespaces/inkscape"
   width="209.02084mm"
   height="137.58334mm"
   viewBox="0 0 209.02084 137.58334"
   version="1.1"
   id="svg12978"
   inkscape:version="0.92.3 (2405546, 2018-03-11)"
   sodipodi:docname="b2.svg">
  <defs
     id="defs12972">
    <clipPath
       clipPathUnits="userSpaceOnUse"
       id="clipPath1892">
      <path
         d="M 0,0 V 5000 H 5000 V 0 Z"
         id="path1890"
         inkscape:connector-curvature="0" />
    </clipPath>
    <clipPath
       clipPathUnits="userSpaceOnUse"
       id="clipPath2026">
      <path
         d="M 0,0 H 5000 V 5000 H 0 Z"
         id="path2024"
         inkscape:connector-curvature="0" />
    </clipPath>
  </defs>
  <sodipodi:namedview
     id="base"
     pagecolor="#ffffff"
     bordercolor="#666666"
     borderopacity="1.0"
     inkscape:pageopacity="0.0"
     inkscape:pageshadow="2"
     inkscape:zoom="0.24"
     inkscape:cx="189.13637"
     inkscape:cy="-374.68873"
     inkscape:document-units="mm"
     inkscape:current-layer="layer1"
     showgrid="false"
     fit-margin-top="0"
     fit-margin-left="0"
     fit-margin-right="0"
     fit-margin-bottom="0"
     inkscape:window-width="1366"
     inkscape:window-height="676"
     inkscape:window-x="0"
     inkscape:window-y="27"
     inkscape:window-maximized="1">
    <inkscape:grid
       type="xygrid"
       id="grid13535"
       originx="208.83184"
       originy="-22.451778" />
  </sodipodi:namedview>
  <metadata
     id="metadata12975">
    <rdf:RDF>
      <cc:Work
         rdf:about="">
        <dc:format>image/svg+xml</dc:format>
        <dc:type
           rdf:resource="http://purl.org/dc/dcmitype/StillImage" />
        <dc:title></dc:title>
      </cc:Work>
    </rdf:RDF>
  </metadata>
  <g
     inkscape:label="Layer 1"
     inkscape:groupmode="layer"
     id="layer1"
     transform="translate(208.83185,-136.96488)">
    <g
       id="g1886"
       transform="matrix(0,-0.03674783,0.04287845,0,-429.11703,308.99708)"
       style="fill:#110e70;fill-opacity:1">
      <g
         clip-path="url(#clipPath1892)"
         id="g1888"
         style="fill:#110e70;fill-opacity:1">
        <path
           inkscape:connector-curvature="0"
           id="path1894"
           style="fill:#110e70;fill-opacity:1;fill-rule:nonzero;stroke:none"
           d="m 1632.63,2919.7 c 84.93,-84.93 222.63,-84.93 307.57,0 l 670.68,670.69 c 84.94,84.93 222.64,84.93 307.58,0 v -0.01 c 84.93,-84.93 84.93,-222.64 0,-307.57 l -140.38,-140.38 c -84.93,-84.94 -84.93,-222.64 0,-307.58 84.94,-84.93 222.64,-84.93 307.57,0 l 3500.01,3500.01 c 84.94,84.94 84.94,222.64 0,307.57 v 0.01 c -84.94,84.93 -222.64,84.93 -307.58,0 L 5593.25,5957.6 c -84.94,-84.94 -222.65,-84.94 -307.57,0 -84.95,84.94 -84.95,222.64 0,307.57 l 1034.83,1034.84 c 84.93,84.94 84.93,222.64 0,307.58 -84.94,84.93 -222.64,84.93 -307.58,0 l -604.54,-604.55 c -84.94,-84.93 -222.65,-84.93 -307.58,0 -84.93,84.93 -84.93,222.64 0,307.57 l 116.67,116.67 c 84.93,84.94 84.93,222.65 0,307.58 -84.93,84.94 -222.65,84.94 -307.58,0 L 1791.72,4616.67 c -84.94,-84.93 -84.94,-222.64 0,-307.57 84.93,-84.94 222.64,-84.94 307.57,0 l 859.1,859.09 c 84.93,84.94 222.64,84.94 307.57,0 84.94,-84.93 84.94,-222.64 0,-307.57 L 1632.63,3227.28 c -84.94,-84.94 -84.94,-222.64 0,-307.58" />
      </g>
    </g>
    <g
       id="g2020"
       transform="matrix(0,-0.10540634,0.13675784,0,-678.59779,337.79695)"
       style="fill:#b3b3b3;fill-opacity:1">
      <g
         clip-path="url(#clipPath2026)"
         id="g2022"
         style="fill:#b3b3b3;fill-opacity:1">
        <path
           inkscape:connector-curvature="0"
           id="path2028"
           style="fill:#b3b3b3;fill-opacity:1;fill-rule:nonzero;stroke:none"
           d="m 3441.49,7453.57 c -84.93,84.94 -84.93,222.65 0,307.58 l 209.35,209.34 c 84.93,84.94 84.93,222.64 0,307.58 h -0.01 c -84.93,84.93 -222.64,84.93 -307.57,0 L 705.441,5640.25 c -84.945,-84.94 -84.945,-222.65 0,-307.58 84.93,-84.94 222.637,-84.94 307.569,0 l 393.64,393.64 c 84.93,84.93 222.64,84.93 307.58,0 84.93,-84.94 84.93,-222.64 0,-307.58 L 748.035,4452.54 c -84.937,-84.93 -84.937,-222.65 0,-307.57 84.934,-84.94 222.637,-84.94 307.585,0 l 3659.09,3659.09 c 84.93,84.93 84.93,222.64 0,307.58 -84.94,84.93 -222.65,84.93 -307.58,0 l -658.06,-658.07 c -84.93,-84.93 -222.65,-84.93 -307.58,0" />
      </g>
    </g>
  </g>
</svg>
